<?xml version="1.0" encoding="UTF-8" standalone="no"?>
<!-- Created with Inkscape (http://www.inkscape.org/) -->

<svg
   version="1.1"
   id="svg1"
   width="666.66669"
   height="666.66669"
   viewBox="0 0 666.66669 666.66669"
   xmlns="http://www.w3.org/2000/svg"
   xmlns:svg="http://www.w3.org/2000/svg">
  <defs
     id="defs1">
    <clipPath
       clipPathUnits="userSpaceOnUse"
       id="clipPath3">
      <path
         d="M 0,500 H 500 V 0 H 0 Z"
         transform="translate(-467.26071,-117.66701)"
         id="path3" />
    </clipPath>
    <clipPath
       clipPathUnits="userSpaceOnUse"
       id="clipPath5">
      <path
         d="M 0,500 H 500 V 0 H 0 Z"
         transform="translate(-216.79981,-248.53611)"
         id="path5" />
    </clipPath>
    <clipPath
       clipPathUnits="userSpaceOnUse"
       id="clipPath6">
      <path
         d="m 196.506,274.143 h 14.329 v -21.639 h -14.329 z"
         transform="translate(-210.54931,-258.70511)"
         id="path6" />
    </clipPath>
    <clipPath
       clipPathUnits="userSpaceOnUse"
       id="clipPath8">
      <path
         d="M 0,500 H 500 V 0 H 0 Z"
         transform="matrix(1.3333333,0,0,-1.3333333,0,666.66667)"
         id="path8" />
    </clipPath>
    <clipPath
       clipPathUnits="userSpaceOnUse"
       id="clipPath10">
      <path
         d="M 0,500 H 500 V 0 H 0 Z"
         id="path10" />
    </clipPath>
    <clipPath
       clipPathUnits="userSpaceOnUse"
       id="clipPath12">
      <path
         d="M 0,500 H 500 V 0 H 0 Z"
         id="path12" />
    </clipPath>
    <clipPath
       clipPathUnits="userSpaceOnUse"
       id="clipPath14">
      <path
         d="M 0,500 H 500 V 0 H 0 Z"
         id="path14" />
    </clipPath>
    <clipPath
       clipPathUnits="userSpaceOnUse"
       id="clipPath16">
      <path
         d="M 0,500 H 500 V 0 H 0 Z"
         id="path16" />
    </clipPath>
    <clipPath
       clipPathUnits="userSpaceOnUse"
       id="clipPath18">
      <path
         d="M 0,500 H 500 V 0 H 0 Z"
         id="path18" />
    </clipPath>
    <clipPath
       clipPathUnits="userSpaceOnUse"
       id="clipPath20">
      <path
         d="M 0,500 H 500 V 0 H 0 Z"
         id="path20" />
    </clipPath>
    <clipPath
       clipPathUnits="userSpaceOnUse"
       id="clipPath22">
      <path
         d="M 0,500 H 500 V 0 H 0 Z"
         id="path22" />
    </clipPath>
    <clipPath
       clipPathUnits="userSpaceOnUse"
       id="clipPath24">
      <path
         d="M 0,500 H 500 V 0 H 0 Z"
         id="path24" />
    </clipPath>
    <clipPath
       clipPathUnits="userSpaceOnUse"
       id="clipPath26">
      <path
         d="M 0,500 H 500 V 0 H 0 Z"
         id="path26" />
    </clipPath>
    <clipPath
       clipPathUnits="userSpaceOnUse"
       id="clipPath28">
      <path
         d="M 0,500 H 500 V 0 H 0 Z"
         id="path28" />
    </clipPath>
    <clipPath
       clipPathUnits="userSpaceOnUse"
       id="clipPath30">
      <path
         d="M 0,500 H 500 V 0 H 0 Z"
         id="path30" />
    </clipPath>
    <clipPath
       clipPathUnits="userSpaceOnUse"
       id="clipPath32">
      <path
         d="M 0,500 H 500 V 0 H 0 Z"
         id="path32" />
    </clipPath>
    <clipPath
       clipPathUnits="userSpaceOnUse"
       id="clipPath34">
      <path
         d="M 0,500 H 500 V 0 H 0 Z"
         transform="translate(-365.83301,-187.00001)"
         id="path34" />
    </clipPath>
    <clipPath
       clipPathUnits="userSpaceOnUse"
       id="clipPath36">
      <path
         d="M 0,500 H 500 V 0 H 0 Z"
         transform="translate(-97.666502,-220.833)"
         id="path36" />
    </clipPath>
    <clipPath
       clipPathUnits="userSpaceOnUse"
       id="clipPath38">
      <path
         d="M 0,500 H 500 V 0 H 0 Z"
         id="path38" />
    </clipPath>
    <clipPath
       clipPathUnits="userSpaceOnUse"
       id="clipPath40">
      <path
         d="M 0,500 H 500 V 0 H 0 Z"
         transform="translate(-101.5503,-269.40431)"
         id="path40" />
    </clipPath>
    <clipPath
       clipPathUnits="userSpaceOnUse"
       id="clipPath41">
      <path
         d="M 101.345,272.702 H 212.714 V 225.996 H 101.345 Z"
         transform="translate(-212.6665,-236.33301)"
         id="path41" />
    </clipPath>
    <clipPath
       clipPathUnits="userSpaceOnUse"
       id="clipPath43">
      <path
         d="M 0,500 H 500 V 0 H 0 Z"
         transform="matrix(1.3333333,0,0,-1.3333333,0,666.66667)"
         id="path43" />
    </clipPath>
    <clipPath
       clipPathUnits="userSpaceOnUse"
       id="clipPath45">
      <path
         d="M 0,500 H 500 V 0 H 0 Z"
         transform="translate(-158.8335,-268.75001)"
         id="path45" />
    </clipPath>
    <clipPath
       clipPathUnits="userSpaceOnUse"
       id="clipPath47">
      <path
         d="M 0,500 H 500 V 0 H 0 Z"
         transform="translate(-197.0835,-291.75)"
         id="path47" />
    </clipPath>
    <clipPath
       clipPathUnits="userSpaceOnUse"
       id="clipPath49">
      <path
         d="M 0,500 H 500 V 0 H 0 Z"
         transform="translate(-210.73051,-242.4795)"
         id="path49" />
    </clipPath>
    <clipPath
       clipPathUnits="userSpaceOnUse"
       id="clipPath50">
      <path
         d="M 144.544,243.667 H 217.5 v -17.334 h -72.956 z"
         transform="translate(-210.99801,-242.51951)"
         id="path50" />
    </clipPath>
    <clipPath
       clipPathUnits="userSpaceOnUse"
       id="clipPath52">
      <path
         d="M 0,500 H 500 V 0 H 0 Z"
         transform="matrix(1.3333333,0,0,-1.3333333,0,666.66667)"
         id="path52" />
    </clipPath>
    <clipPath
       clipPathUnits="userSpaceOnUse"
       id="clipPath54">
      <path
         d="M 0,500 H 500 V 0 H 0 Z"
         transform="translate(-198.8335,-292.125)"
         id="path54" />
    </clipPath>
    <clipPath
       clipPathUnits="userSpaceOnUse"
       id="clipPath56">
      <path
         d="M 0,500 H 500 V 0 H 0 Z"
         transform="translate(-134.6665,-280.3335)"
         id="path56" />
    </clipPath>
    <clipPath
       clipPathUnits="userSpaceOnUse"
       id="clipPath58">
      <path
         d="M 0,500 H 500 V 0 H 0 Z"
         transform="translate(-190.9639,-259.06931)"
         id="path58" />
    </clipPath>
    <clipPath
       clipPathUnits="userSpaceOnUse"
       id="clipPath60">
      <path
         d="M 0,500 H 500 V 0 H 0 Z"
         transform="translate(-156.3447,-274.87011)"
         id="path60" />
    </clipPath>
    <clipPath
       clipPathUnits="userSpaceOnUse"
       id="clipPath62">
      <path
         d="M 0,500 H 500 V 0 H 0 Z"
         transform="translate(-172.7007,-264.58791)"
         id="path62" />
    </clipPath>
    <clipPath
       clipPathUnits="userSpaceOnUse"
       id="clipPath64">
      <path
         d="M 0,500 H 500 V 0 H 0 Z"
         transform="translate(-184.1772,-276.2505)"
         id="path64" />
    </clipPath>
    <clipPath
       clipPathUnits="userSpaceOnUse"
       id="clipPath66">
      <path
         d="M 0,500 H 500 V 0 H 0 Z"
         transform="translate(-219.00001,-266.22411)"
         id="path66" />
    </clipPath>
    <clipPath
       clipPathUnits="userSpaceOnUse"
       id="clipPath68">
      <path
         d="M 0,500 H 500 V 0 H 0 Z"
         transform="translate(-218.00001,-267)"
         id="path68" />
    </clipPath>
    <clipPath
       clipPathUnits="userSpaceOnUse"
       id="clipPath70">
      <path
         d="M 0,500 H 500 V 0 H 0 Z"
         transform="translate(-239.3335,-258.50001)"
         id="path70" />
    </clipPath>
    <clipPath
       clipPathUnits="userSpaceOnUse"
       id="clipPath72">
      <path
         d="M 0,500 H 500 V 0 H 0 Z"
         transform="translate(-180.47361,-283.45071)"
         id="path72" />
    </clipPath>
    <clipPath
       clipPathUnits="userSpaceOnUse"
       id="clipPath74">
      <path
         d="M 0,500 H 500 V 0 H 0 Z"
         transform="translate(-172.82181,-275.19971)"
         id="path74" />
    </clipPath>
    <clipPath
       clipPathUnits="userSpaceOnUse"
       id="clipPath76">
      <path
         d="M 0,500 H 500 V 0 H 0 Z"
         id="path76" />
    </clipPath>
    <clipPath
       clipPathUnits="userSpaceOnUse"
       id="clipPath78">
      <path
         d="M 0,500 H 500 V 0 H 0 Z"
         id="path78" />
    </clipPath>
    <clipPath
       clipPathUnits="userSpaceOnUse"
       id="clipPath80">
      <path
         d="M 0,500 H 500 V 0 H 0 Z"
         id="path80" />
    </clipPath>
    <clipPath
       clipPathUnits="userSpaceOnUse"
       id="clipPath82">
      <path
         d="M 0,500 H 500 V 0 H 0 Z"
         id="path82" />
    </clipPath>
    <clipPath
       clipPathUnits="userSpaceOnUse"
       id="clipPath84">
      <path
         d="M 0,500 H 500 V 0 H 0 Z"
         id="path84" />
    </clipPath>
    <clipPath
       clipPathUnits="userSpaceOnUse"
       id="clipPath86">
      <path
         d="M 0,500 H 500 V 0 H 0 Z"
         id="path86" />
    </clipPath>
    <clipPath
       clipPathUnits="userSpaceOnUse"
       id="clipPath88">
      <path
         d="M 0,500 H 500 V 0 H 0 Z"
         id="path88" />
    </clipPath>
    <clipPath
       clipPathUnits="userSpaceOnUse"
       id="clipPath90">
      <path
         d="M 0,500 H 500 V 0 H 0 Z"
         transform="translate(-73.255402,-232.125)"
         id="path90" />
    </clipPath>
    <clipPath
       clipPathUnits="userSpaceOnUse"
       id="clipPath92">
      <path
         d="M 0,500 H 500 V 0 H 0 Z"
         transform="translate(-64.833502,-270.85551)"
         id="path92" />
    </clipPath>
    <clipPath
       clipPathUnits="userSpaceOnUse"
       id="clipPath93">
      <path
         d="m 62.276,271 h 4.4794 v -5.937 H 62.276 Z"
         transform="translate(-62.650402,-265.06301)"
         id="path93" />
    </clipPath>
    <clipPath
       clipPathUnits="userSpaceOnUse"
       id="clipPath95">
      <path
         d="M 0,500 H 500 V 0 H 0 Z"
         transform="matrix(1.3333333,0,0,-1.3333333,0,666.66667)"
         id="path95" />
    </clipPath>
    <clipPath
       clipPathUnits="userSpaceOnUse"
       id="clipPath97">
      <path
         d="M 0,500 H 500 V 0 H 0 Z"
         transform="translate(-87.890605,-267.25001)"
         id="path97" />
    </clipPath>
    <clipPath
       clipPathUnits="userSpaceOnUse"
       id="clipPath98">
      <path
         d="m 41.1407,309 h 46.75 v -41.75 h -46.75 z"
         transform="translate(-87.890605,-267.25001)"
         id="path98" />
    </clipPath>
    <clipPath
       clipPathUnits="userSpaceOnUse"
       id="clipPath100">
      <path
         d="M 0,500 H 500 V 0 H 0 Z"
         transform="matrix(1.3333333,0,0,-1.3333333,0,666.66667)"
         id="path100" />
    </clipPath>
    <clipPath
       clipPathUnits="userSpaceOnUse"
       id="clipPath102">
      <path
         d="M 0,500 H 500 V 0 H 0 Z"
         transform="translate(-65.000002,-267.25001)"
         id="path102" />
    </clipPath>
    <clipPath
       clipPathUnits="userSpaceOnUse"
       id="clipPath107">
      <path
         d="M 0,500 H 500 V 0 H 0 Z"
         id="path107" />
    </clipPath>
    <clipPath
       clipPathUnits="userSpaceOnUse"
       id="clipPath109">
      <path
         d="M 0,500 H 500 V 0 H 0 Z"
         id="path109" />
    </clipPath>
    <clipPath
       clipPathUnits="userSpaceOnUse"
       id="clipPath111">
      <path
         d="M 0,500 H 500 V 0 H 0 Z"
         id="path111" />
    </clipPath>
    <clipPath
       clipPathUnits="userSpaceOnUse"
       id="clipPath113">
      <path
         d="M 0,500 H 500 V 0 H 0 Z"
         id="path113" />
    </clipPath>
    <clipPath
       clipPathUnits="userSpaceOnUse"
       id="clipPath115">
      <path
         d="M 0,500 H 500 V 0 H 0 Z"
         id="path115" />
    </clipPath>
    <clipPath
       clipPathUnits="userSpaceOnUse"
       id="clipPath117">
      <path
         d="M 0,500 H 500 V 0 H 0 Z"
         id="path117" />
    </clipPath>
    <clipPath
       clipPathUnits="userSpaceOnUse"
       id="clipPath119">
      <path
         d="M 0,500 H 500 V 0 H 0 Z"
         id="path119" />
    </clipPath>
    <clipPath
       clipPathUnits="userSpaceOnUse"
       id="clipPath121">
      <path
         d="M 0,500 H 500 V 0 H 0 Z"
         id="path121" />
    </clipPath>
    <clipPath
       clipPathUnits="userSpaceOnUse"
       id="clipPath123">
      <path
         d="M 0,500 H 500 V 0 H 0 Z"
         id="path123" />
    </clipPath>
    <clipPath
       clipPathUnits="userSpaceOnUse"
       id="clipPath126">
      <path
         d="M 0,500 H 500 V 0 H 0 Z"
         id="path126" />
    </clipPath>
    <clipPath
       clipPathUnits="userSpaceOnUse"
       id="clipPath128">
      <path
         d="M 0,500 H 500 V 0 H 0 Z"
         id="path128" />
    </clipPath>
    <clipPath
       clipPathUnits="userSpaceOnUse"
       id="clipPath130">
      <path
         d="M 0,500 H 500 V 0 H 0 Z"
         id="path130" />
    </clipPath>
    <clipPath
       clipPathUnits="userSpaceOnUse"
       id="clipPath132">
      <path
         d="M 0,500 H 500 V 0 H 0 Z"
         id="path132" />
    </clipPath>
    <clipPath
       clipPathUnits="userSpaceOnUse"
       id="clipPath134">
      <path
         d="M 0,500 H 500 V 0 H 0 Z"
         id="path134" />
    </clipPath>
    <clipPath
       clipPathUnits="userSpaceOnUse"
       id="clipPath136">
      <path
         d="M 0,500 H 500 V 0 H 0 Z"
         id="path136" />
    </clipPath>
    <clipPath
       clipPathUnits="userSpaceOnUse"
       id="clipPath138">
      <path
         d="M 0,500 H 500 V 0 H 0 Z"
         id="path138" />
    </clipPath>
    <clipPath
       clipPathUnits="userSpaceOnUse"
       id="clipPath140">
      <path
         d="M 0,500 H 500 V 0 H 0 Z"
         id="path140" />
    </clipPath>
    <clipPath
       clipPathUnits="userSpaceOnUse"
       id="clipPath142">
      <path
         d="M 0,500 H 500 V 0 H 0 Z"
         id="path142" />
    </clipPath>
    <clipPath
       clipPathUnits="userSpaceOnUse"
       id="clipPath144">
      <path
         d="M 0,500 H 500 V 0 H 0 Z"
         id="path144" />
    </clipPath>
    <clipPath
       clipPathUnits="userSpaceOnUse"
       id="clipPath146">
      <path
         d="M 0,500 H 500 V 0 H 0 Z"
         id="path146" />
    </clipPath>
    <clipPath
       clipPathUnits="userSpaceOnUse"
       id="clipPath148">
      <path
         d="M 0,500 H 500 V 0 H 0 Z"
         id="path148" />
    </clipPath>
    <clipPath
       clipPathUnits="userSpaceOnUse"
       id="clipPath150">
      <path
         d="M 0,500 H 500 V 0 H 0 Z"
         id="path150" />
    </clipPath>
    <clipPath
       clipPathUnits="userSpaceOnUse"
       id="clipPath152">
      <path
         d="M 0,500 H 500 V 0 H 0 Z"
         id="path152" />
    </clipPath>
    <clipPath
       clipPathUnits="userSpaceOnUse"
       id="clipPath154">
      <path
         d="M 0,500 H 500 V 0 H 0 Z"
         transform="translate(-111,-200.50001)"
         id="path154" />
    </clipPath>
    <clipPath
       clipPathUnits="userSpaceOnUse"
       id="clipPath156">
      <path
         d="M 0,500 H 500 V 0 H 0 Z"
         transform="translate(-111.9165,-201.66701)"
         id="path156" />
    </clipPath>
  </defs>
  <g
     id="layer-MC0"
     style="display:none">
    <path
       id="path1"
       d="M 0,0 H 500 V 500 H 0 Z"
       style="fill:#0a377a;fill-opacity:1;fill-rule:nonzero;stroke:none"
       transform="matrix(1.3333333,0,0,-1.3333333,0,666.66667)" />
  </g>
  <g
     id="layer-MC1">
    <path
       id="path2"
       d="m 0,0 h -434.521 c -4.275,0 -7.74,3.465 -7.74,7.739 v 0.522 c 0,4.273 3.465,7.739 7.74,7.739 H 0 C 4.274,16 7.739,12.534 7.739,8.261 V 7.739 C 7.739,3.465 4.274,0 0,0"
       style="fill:#082e66;fill-opacity:1;fill-rule:nonzero;stroke:none"
       transform="matrix(1.3333333,0,0,-1.3333333,623.01427,509.77733)"
       clip-path="url(#clipPath3)" />
    <path
       id="path4"
       d="m 0,0 -20.293,10.097 7.717,15.51 L 7.717,15.51 Z"
       style="fill:#be9cd3;fill-opacity:1;fill-rule:nonzero;stroke:none"
       transform="matrix(1.3333333,0,0,-1.3333333,289.0664,335.2852)"
       clip-path="url(#clipPath5)" />
    <g
       id="g7"
       clip-path="url(#clipPath8)">
      <path
         d="m 0,0 c 0.696,4.27 -0.038,8.373 -0.513,12.546 l -5.813,2.892 -7.717,-15.51 12.319,-6.129 C -0.913,-4.212 -0.346,-2.121 0,0"
         style="fill:#bac7da;fill-opacity:1;fill-rule:nonzero;stroke:none"
         transform="matrix(1.3333333,0,0,-1.3333333,280.7324,321.72653)"
         clip-path="url(#clipPath6)"
         id="path7" />
    </g>
    <path
       id="path9"
       d="m 120,222.333 h -6 v 92.889 h 6 z"
       style="fill:#2b5ca9;fill-opacity:1;fill-rule:nonzero;stroke:none"
       transform="matrix(1.3333333,0,0,-1.3333333,0,666.66667)"
       clip-path="url(#clipPath10)" />
    <path
       id="path11"
       d="m 141.333,222.333 h -6 v 92.889 h 6 z"
       style="fill:#2b5ca9;fill-opacity:1;fill-rule:nonzero;stroke:none"
       transform="matrix(1.3333333,0,0,-1.3333333,0,666.66667)"
       clip-path="url(#clipPath12)" />
    <path
       id="path13"
       d="m 162.667,222.333 h -6 v 92.889 h 6 z"
       style="fill:#2b5ca9;fill-opacity:1;fill-rule:nonzero;stroke:none"
       transform="matrix(1.3333333,0,0,-1.3333333,0,666.66667)"
       clip-path="url(#clipPath14)" />
    <path
       id="path15"
       d="m 120,308.75 h -6 v 6.472 h 6 z"
       style="fill:#224b87;fill-opacity:1;fill-rule:nonzero;stroke:none"
       transform="matrix(1.3333333,0,0,-1.3333333,0,666.66667)"
       clip-path="url(#clipPath16)" />
    <path
       id="path17"
       d="m 141.333,308.75 h -6 v 6.472 h 6 z"
       style="fill:#224b87;fill-opacity:1;fill-rule:nonzero;stroke:none"
       transform="matrix(1.3333333,0,0,-1.3333333,0,666.66667)"
       clip-path="url(#clipPath18)" />
    <path
       id="path19"
       d="m 162.667,308.75 h -6 v 6.472 h 6 z"
       style="fill:#224b87;fill-opacity:1;fill-rule:nonzero;stroke:none"
       transform="matrix(1.3333333,0,0,-1.3333333,0,666.66667)"
       clip-path="url(#clipPath20)" />
    <path
       id="path21"
       d="m 190.333,125.333 h -18.667 v 207.333 h 18.667 z"
       style="fill:#224b87;fill-opacity:1;fill-rule:nonzero;stroke:none"
       transform="matrix(1.3333333,0,0,-1.3333333,0,666.66667)"
       clip-path="url(#clipPath22)" />
    <path
       id="path23"
       d="M 190.333,125.333 H 181 v 207.333 h 9.333 z"
       style="fill:#2b5ca9;fill-opacity:1;fill-rule:nonzero;stroke:none"
       transform="matrix(1.3333333,0,0,-1.3333333,0,666.66667)"
       clip-path="url(#clipPath24)" />
    <path
       id="path25"
       d="m 177.833,313 h -79 v 11.75 h 79 z"
       style="fill:#2b5ca9;fill-opacity:1;fill-rule:nonzero;stroke:none"
       transform="matrix(1.3333333,0,0,-1.3333333,0,666.66667)"
       clip-path="url(#clipPath26)" />
    <path
       id="path27"
       d="M 101.667,125.333 H 83 v 207.333 h 18.667 z"
       style="fill:#224b87;fill-opacity:1;fill-rule:nonzero;stroke:none"
       transform="matrix(1.3333333,0,0,-1.3333333,0,666.66667)"
       clip-path="url(#clipPath28)" />
    <path
       id="path29"
       d="m 101.667,125.333 h -9.333 v 207.333 h 9.333 z"
       style="fill:#2b5ca9;fill-opacity:1;fill-rule:nonzero;stroke:none"
       transform="matrix(1.3333333,0,0,-1.3333333,0,666.66667)"
       clip-path="url(#clipPath30)" />
    <path
       id="path31"
       d="M 357.5,157 H 96.667 v 34.667 H 357.5 Z"
       style="fill:#224b87;fill-opacity:1;fill-rule:nonzero;stroke:none"
       transform="matrix(1.3333333,0,0,-1.3333333,0,666.66667)"
       clip-path="url(#clipPath32)" />
    <path
       id="path33"
       d="m 0,0 h -269.167 v 32.5 c 0,3.866 3.135,7 7,7 H 0 Z"
       style="fill:#4988d1;fill-opacity:1;fill-rule:nonzero;stroke:none"
       transform="matrix(1.3333333,0,0,-1.3333333,487.77733,417.33333)"
       clip-path="url(#clipPath34)" />
    <path
       id="path35"
       d="M 0,0 H 268.167 V 5.667 H 6 c -3.431,0 -6.28,-2.47 -6.879,-5.728 C -0.59,-0.024 -0.298,0 0,0"
       style="fill:#649ad8;fill-opacity:1;fill-rule:nonzero;stroke:none"
       transform="matrix(1.3333333,0,0,-1.3333333,130.222,372.22267)"
       clip-path="url(#clipPath36)" />
    <path
       id="path37"
       d="M 357.5,182.5 H 96.667 v 9.167 H 357.5 Z"
       style="fill:#164181;fill-opacity:1;fill-rule:nonzero;stroke:none"
       transform="matrix(1.3333333,0,0,-1.3333333,0,666.66667)"
       clip-path="url(#clipPath38)" />
    <path
       id="path39"
       d="m 0,0 c -0.577,1.479 0.09,3.145 1.531,3.813 5.388,2.503 18.278,7.789 34.919,8.783 22.333,1.333 35.585,-4.187 44.5,-9.5 16.5,-9.834 28.666,-22.5 30.333,-36.333 0.677,-5.619 -26.167,-10.334 -51.167,-10.167 -23.782,0.158 -34.333,8.333 -46.5,21.333 C 6.834,-14.825 1.826,-4.681 0,0"
       style="fill:#649ad8;fill-opacity:1;fill-rule:nonzero;stroke:none"
       transform="matrix(1.3333333,0,0,-1.3333333,135.4004,307.46093)"
       clip-path="url(#clipPath40)" />
    <g
       id="g42"
       clip-path="url(#clipPath43)">
      <path
         d="m 0,0 c -0.023,0.098 -0.055,0.203 -0.08,0.302 -11.773,-0.146 -38.603,0.039 -67.503,9.615 -24.213,8.023 -36.59,18.75 -42.756,26.452 -0.893,-0.816 -1.24,-2.112 -0.777,-3.298 C -109.291,28.391 -104.282,18.247 -97.5,11 -85.333,-2 -74.782,-10.175 -51,-10.333 -26,-10.5 1.333,-5.5 0,0"
         style="fill:#b5ceec;fill-opacity:1;fill-rule:nonzero;stroke:none"
         transform="matrix(1.3333333,0,0,-1.3333333,283.55533,351.556)"
         clip-path="url(#clipPath41)"
         id="path42" />
    </g>
    <path
       id="path44"
       d="m 0,0 c 0,0 9.5,-1.375 16.5,-6.875 7,-5.5 13.125,-13.875 13.125,-13.875 0,0 6.125,-2.625 14,7.375 7.875,10 7,22.5 1.375,30.875 C 39.375,25.875 21.125,37.375 5.25,27.75 -10.625,18.125 0,0 0,0"
       style="fill:#be9cd3;fill-opacity:1;fill-rule:nonzero;stroke:none"
       transform="matrix(1.3333333,0,0,-1.3333333,211.778,308.33333)"
       clip-path="url(#clipPath45)" />
    <path
       id="path46"
       d="m 0,0 c 0,0 -1.125,5.875 2.375,6.25 3.5,0.375 7.75,-7 6.625,-10 -1.125,-3 -2.875,-3.625 -2.875,-3.625 z"
       style="fill:#be9cd3;fill-opacity:1;fill-rule:nonzero;stroke:none"
       transform="matrix(1.3333333,0,0,-1.3333333,262.778,277.66667)"
       clip-path="url(#clipPath47)" />
    <path
       id="path48"
       d="m 0,0 c -3.37,-0.514 -6.7,-1.165 -10.037,-1.862 -6.748,-1.409 -12.876,-3.923 -19.693,-4.95 -3.247,-0.49 -15.792,-2.167 -18.939,-3.271 -2.879,-1.01 -11.895,-2.703 -13.435,-2.974 -0.775,-0.135 -1.667,-0.253 -2.383,-0.603 -0.573,-0.28 -2.251,-1.527 -1.515,-2.463 7.189,0.082 15.289,-0.05 22.604,0.003 l 0.001,-0.026 H 6.77 V 1.187 L 5.625,1.018 C 3.778,0.55 1.868,0.285 0,0"
       style="fill:#be9cd3;fill-opacity:1;fill-rule:nonzero;stroke:none"
       transform="matrix(1.3333333,0,0,-1.3333333,280.974,343.36067)"
       clip-path="url(#clipPath49)" />
    <g
       id="g51"
       clip-path="url(#clipPath52)">
      <path
         d="m 0,0 c -0.048,-3.662 -1.361,-7.359 -4.024,-9.828 -1.903,-1.765 -4.312,-2.451 -6.843,-2.724 -3.445,-0.37 -6.962,-0.43 -10.421,-0.652 -8.218,-0.526 -16.464,-0.355 -24.693,-0.71 -6.607,-0.286 -13.213,-0.633 -19.824,-0.56 -0.512,-0.503 -0.891,-1.147 -0.465,-1.689 7.19,0.082 15.29,-0.05 22.604,0.003 l 10e-4,-0.027 H 6.502 V 1.147 L 5.357,0.978 C 3.599,0.532 1.783,0.27 0,0"
         style="fill:#dfe5ee;fill-opacity:1;fill-rule:nonzero;stroke:none"
         transform="matrix(1.3333333,0,0,-1.3333333,281.33067,343.30733)"
         clip-path="url(#clipPath50)"
         id="path51" />
    </g>
    <path
       id="path53"
       d="m 0,0 c 0,0 -4.5,-1.5 -10.125,1 -5.625,2.5 -9.75,4.875 -9.75,4.875 l 0.75,4.625 c 0,0 4.625,1 9.75,-1.125 C -4.25,7.25 -1.562,4.062 -1.562,4.062 -1.562,4.062 -1.625,1.25 0,0"
       style="fill:#082e66;fill-opacity:1;fill-rule:nonzero;stroke:none"
       transform="matrix(1.3333333,0,0,-1.3333333,265.11133,277.16667)"
       clip-path="url(#clipPath54)" />
    <path
       id="path55"
       d="m 0,0 c 0,0 14.667,-13.833 24.042,-7.833 9.375,6 20.125,24 20.75,26.125 0.625,2.125 1,4.125 1,4.125 0,0 -6.125,1.25 -17.125,-0.125 C 17.667,20.917 11.083,17.5 11.083,17.5 l 6.667,-6.167 c 0,0 -3.5,-1.416 -7.083,-1.416 h -7 c 0,0 2.472,-4.081 5.625,-6 2.875,-1.75 4.375,-2.5 4.375,-2.5 0,0 -1.667,-1.084 -7.334,-1.334 C 2.71,-0.077 0,0 0,0"
       style="fill:#082e66;fill-opacity:1;fill-rule:nonzero;stroke:none"
       transform="matrix(1.3333333,0,0,-1.3333333,179.55533,292.88867)"
       clip-path="url(#clipPath56)" />
    <path
       id="path57"
       d="M 0,0 C 0,0 1.44,-3.953 2.534,-2.785 3.628,-1.618 3.019,0.079 5.136,1.412 7.253,2.745 9.251,3.009 8.76,4.97 8.268,6.931 1.895,9.576 -0.032,6.7 -1.958,3.823 0,0 0,0"
       style="fill:#234577;fill-opacity:1;fill-rule:nonzero;stroke:none"
       transform="matrix(1.3333333,0,0,-1.3333333,254.61853,321.24093)"
       clip-path="url(#clipPath58)" />
    <path
       id="path59"
       d="m 0,0 c 1.029,-3.626 2.489,-6.12 2.489,-6.12 0,0 1.769,-0.258 4.339,-0.989 C 5.639,-3.012 2.155,0.63 2.155,0.63 2.155,0.63 0.932,0.51 0,0"
       style="fill:#082e66;fill-opacity:1;fill-rule:nonzero;stroke:none"
       transform="matrix(1.3333333,0,0,-1.3333333,208.4596,300.1732)"
       clip-path="url(#clipPath60)" />
    <path
       id="path61"
       d="M 0,0 C 1.905,-1.064 4.157,-0.42 5.562,1.181 6.832,2.627 7.998,6.05 6.798,7.787 6.707,7.919 6.476,7.958 6.394,7.787 6.077,7.13 6.133,6.515 6.099,5.794 6.048,4.728 5.854,3.67 5.357,2.715 4.408,0.89 2.229,-0.205 0.252,0.6 -0.095,0.742 -0.319,0.178 0,0"
       style="fill:#234577;fill-opacity:1;fill-rule:nonzero;stroke:none"
       transform="matrix(1.3333333,0,0,-1.3333333,230.2676,313.8828)"
       clip-path="url(#clipPath62)" />
    <path
       id="path63"
       d="M 0,0 C 4.474,-1.806 7.773,6.198 4.778,8.981 4.591,9.155 4.284,9.032 4.278,8.774 4.233,6.952 4.872,5.496 4.253,3.637 3.71,2.005 2.194,0.126 0.209,0.757 -0.283,0.914 -0.456,0.184 0,0"
       style="fill:#234577;fill-opacity:1;fill-rule:nonzero;stroke:none"
       transform="matrix(1.3333333,0,0,-1.3333333,245.5696,298.33267)"
       clip-path="url(#clipPath64)" />
    <path
       id="path65"
       d="m 0,0 c -10.016,-13.751 -9.399,-80.126 -9.353,-95.127 0.005,-1.707 1.334,-3.085 2.979,-3.097 l 138.315,0.06 c 2.895,-0.021 5.204,2.498 5.026,5.496 -0.656,11.098 -1.696,35.709 1.366,43.913 4,10.718 5.667,5.878 5.667,5.878 l 49.333,-0.346 c 0,0 1.667,18.673 -2.666,28.009 -4.334,9.336 -61,35.615 -106,36.653 C 39.667,22.476 11.333,15.561 0,0"
       style="fill:#164181;fill-opacity:1;fill-rule:nonzero;stroke:none"
       transform="matrix(1.3333333,0,0,-1.3333333,292,311.7012)"
       clip-path="url(#clipPath66)" />
    <path
       id="path67"
       d="m 0,0 c -10.016,-13.257 -9.399,-77.241 -9.353,-91.702 0.005,-1.646 1.334,-2.974 2.979,-2.986 l 135.315,0.059 c 2.895,-0.02 5.204,2.408 5.026,5.298 -0.656,10.698 -0.696,34.423 2.366,42.331 4,10.333 9.667,5.667 9.667,5.667 l 47.333,-0.334 c 0,0 1.667,18 -2.666,27 -2.737,5.685 -12.166,9.359 -17.368,11.945 -11.603,5.768 -23.856,10.321 -36.245,14.077 -25.7,7.793 -52.686,10.582 -79.459,8.822 C 38.569,18.925 12.551,16.612 0,0"
       style="fill:#528ed3;fill-opacity:1;fill-rule:nonzero;stroke:none"
       transform="matrix(1.3333333,0,0,-1.3333333,290.66667,310.66667)"
       clip-path="url(#clipPath68)" />
    <path
       id="path69"
       d="M 0,0 C 2.667,15.5 9,22.5 16.163,26.656 1.723,24.4 -12.868,19.704 -21.333,8.5 c -10.017,-13.257 -9.4,-77.241 -9.354,-91.702 0.006,-1.646 1.334,-2.974 2.98,-2.986 l 25.716,0.014 C -1.957,-67.472 -3.431,-19.942 0,0"
       style="fill:#6ea0da;fill-opacity:1;fill-rule:nonzero;stroke:none"
       transform="matrix(1.3333333,0,0,-1.3333333,319.11133,322)"
       clip-path="url(#clipPath70)" />
    <path
       id="path71"
       d="M 0,0 C 0.838,1.045 1.659,2.084 2.435,3.179 3.153,4.192 4.259,5.334 4.477,6.571 4.526,6.849 4.254,7.108 3.983,6.951 2.975,6.361 2.365,5.104 1.714,4.162 0.884,2.961 0.123,1.734 -0.625,0.483 -0.851,0.106 -0.289,-0.361 0,0"
       style="fill:#234577;fill-opacity:1;fill-rule:nonzero;stroke:none"
       transform="matrix(1.3333333,0,0,-1.3333333,240.63147,288.7324)"
       clip-path="url(#clipPath72)" />
    <path
       id="path73"
       d="m 0,0 c -0.855,-0.963 -1.685,-1.941 -2.434,-2.99 -0.731,-1.024 -1.599,-2.071 -1.811,-3.34 -0.037,-0.226 0.212,-0.524 0.448,-0.344 0.943,0.717 1.479,1.76 2.131,2.729 0.772,1.146 1.552,2.289 2.366,3.405 C 0.997,-0.132 0.334,0.376 0,0"
       style="fill:#234577;fill-opacity:1;fill-rule:nonzero;stroke:none"
       transform="matrix(1.3333333,0,0,-1.3333333,230.42907,299.73373)"
       clip-path="url(#clipPath74)" />
    <path
       id="path75"
       d="M 372.667,125.333 H 354 V 269 h 18.667 z"
       style="fill:#224b87;fill-opacity:1;fill-rule:nonzero;stroke:none"
       transform="matrix(1.3333333,0,0,-1.3333333,0,666.66667)"
       clip-path="url(#clipPath76)" />
    <path
       id="path77"
       d="m 372.667,125.333 h -9.334 V 269 h 9.334 z"
       style="fill:#2b5ca9;fill-opacity:1;fill-rule:nonzero;stroke:none"
       transform="matrix(1.3333333,0,0,-1.3333333,0,666.66667)"
       clip-path="url(#clipPath78)" />
    <path
       id="path79"
       d="M 461.333,125.333 H 442.667 V 269 h 18.666 z"
       style="fill:#224b87;fill-opacity:1;fill-rule:nonzero;stroke:none"
       transform="matrix(1.3333333,0,0,-1.3333333,0,666.66667)"
       clip-path="url(#clipPath80)" />
    <path
       id="path81"
       d="M 461.333,125.333 H 452 V 269 h 9.333 z"
       style="fill:#2b5ca9;fill-opacity:1;fill-rule:nonzero;stroke:none"
       transform="matrix(1.3333333,0,0,-1.3333333,0,666.66667)"
       clip-path="url(#clipPath82)" />
    <path
       id="path83"
       d="M 449.333,158.667 H 371 v 99 h 78.333 z"
       style="fill:#2b5ca9;fill-opacity:1;fill-rule:nonzero;stroke:none"
       transform="matrix(1.3333333,0,0,-1.3333333,0,666.66667)"
       clip-path="url(#clipPath84)" />
    <path
       id="path85"
       d="m 434.833,206.229 h -51.667 v 33.293 h 51.667 z m -52.666,-3 h 55.666 v 37.293 h -55.666 z"
       style="fill:#224b87;fill-opacity:1;fill-rule:nonzero;stroke:none"
       transform="matrix(1.3333333,0,0,-1.3333333,0,666.66667)"
       clip-path="url(#clipPath86)" />
    <path
       id="path87"
       d="m 434.833,177.229 h -51.667 v 17.293 h 51.667 z m -52.666,-3 h 55.666 v 21.293 h -55.666 z"
       style="fill:#224b87;fill-opacity:1;fill-rule:nonzero;stroke:none"
       transform="matrix(1.3333333,0,0,-1.3333333,0,666.66667)"
       clip-path="url(#clipPath88)" />
    <path
       id="path89"
       d="m 0,0 c 0,0 4.875,4.875 4.5,11 -0.375,6.125 -7.375,8.375 -9.875,13.25 -2.5,4.875 -1.125,14 -1.125,14 l -1.979,0.495 v 0.13 L -8.74,38.81 -9,38.875 v -0.13 l -1.979,-0.495 c 0,0 1.375,-9.125 -1.125,-14 -2.5,-4.875 -9.5,-7.125 -9.875,-13.25 -0.375,-6.125 4.5,-11 4.5,-11 0,0 -3.25,-1.75 -3.125,-4.125 C -20.479,-6.5 3,-6.5 3.125,-4.125 3.25,-1.75 0,0 0,0"
       style="fill:#3a68af;fill-opacity:1;fill-rule:nonzero;stroke:none"
       transform="matrix(1.3333333,0,0,-1.3333333,97.673867,357.16667)"
       clip-path="url(#clipPath90)" />
    <path
       id="path91"
       d="m 0,0 -0.058,0.015 v 0.13 l -0.26,-0.065 -0.26,0.065 v -0.13 l -1.98,-0.495 c 0,0 1.375,-9.125 -1.125,-14 -2.5,-4.875 -9.5,-7.125 -9.875,-13.25 -0.375,-6.125 4.5,-11 4.5,-11 0,0 -3.25,-1.75 -3.125,-4.125 0.064,-1.209 6.178,-1.801 12.183,-1.78 z"
       style="fill:#2b5ca9;fill-opacity:1;fill-rule:nonzero;stroke:none"
       transform="matrix(1.3333333,0,0,-1.3333333,86.444667,305.526)"
       clip-path="url(#clipPath92)" />
    <g
       id="g94"
       clip-path="url(#clipPath95)">
      <path
         d="m 0,0 c 1.228,0.08 2.476,0.149 3.731,0.194 0.035,2.865 0.374,5.118 0.374,5.118 l -1.98,0.495 v 0.13 L 1.865,5.872 1.605,5.937 v -0.13 l -1.98,-0.495 c 0,0 0.354,-2.356 0.375,-5.312"
         style="fill:#aec1de;fill-opacity:1;fill-rule:nonzero;stroke:none"
         transform="matrix(1.3333333,0,0,-1.3333333,83.533867,313.24933)"
         clip-path="url(#clipPath93)"
         id="path94" />
    </g>
    <path
       id="path96"
       d="m 0,0 h -46.75 l 10.389,41.75 h 25.972 z"
       style="fill:#649ad8;fill-opacity:1;fill-rule:nonzero;stroke:none"
       transform="matrix(1.3333333,0,0,-1.3333333,117.18747,310.33333)"
       clip-path="url(#clipPath97)" />
    <g
       id="g99"
       clip-path="url(#clipPath100)">
      <path
         d="m 0,0 h -46.75 l 10.389,41.75 h 25.972 z"
         style="fill:#b5ceec;fill-opacity:1;fill-rule:nonzero;stroke:none"
         transform="matrix(1.3333333,0,0,-1.3333333,117.18747,310.33333)"
         clip-path="url(#clipPath98)"
         id="path99" />
    </g>
    <path
       id="path101"
       d="M 0,0 H 22.891 L 12.502,41.75 H 0 Z"
       style="fill:#4988d1;fill-opacity:1;fill-rule:nonzero;stroke:none"
       transform="matrix(1.3333333,0,0,-1.3333333,86.666667,310.33333)"
       clip-path="url(#clipPath102)" />
    <path
       id="path103"
       d="M 1.2201812,-4.5984304e-4 V -1.5192075 L 15.306119,-13.046924 H 1.8178375 v -1.518748 H 17.907681 v 1.518748 L 3.7397125,-1.5192075 H 18.20065 v 1.51874765696 z m 0,0"
       style="fill:#4a6b9d;fill-opacity:1;fill-rule:nonzero;stroke:none"
       aria-label="Z"
       transform="matrix(1.3333333,0,0,1.4814838,281.10747,257.0124)" />
    <path
       id="path104"
       d="M 2.1211172,-9.1828314e-4 V -2.6481894 L 26.742211,-22.792762 H 3.1758047 V -25.45058 H 31.277367 v 2.657818 L 6.5273672,-2.6481894 H 31.804711 v 2.64727111686 z m 0,0"
       style="fill:#4a6b9d;fill-opacity:1;fill-rule:nonzero;stroke:none"
       aria-label="Z"
       transform="matrix(1.3333333,0,0,1.4814784,307.582,218.13027)" />
    <path
       id="path105"
       d="M 1.3598687,-8.7046835e-4 V -1.6883697 L 17.062994,-14.545004 H 2.0278375 V -16.24305 H 19.969244 v 1.698046 L 4.1723687,-1.6883697 H 20.309087 v 1.68749923165 z m 0,0"
       style="fill:#4a6b9d;fill-opacity:1;fill-rule:nonzero;stroke:none"
       aria-label="Z"
       transform="matrix(1.3333333,0,0,1.4814822,363.82747,231.71613)" />
    <path
       id="path106"
       d="m 87.458,227.042 h -2.5 v 2.916 h 2.5 z"
       style="fill:#3664ad;fill-opacity:1;fill-rule:nonzero;stroke:none"
       transform="matrix(1.3333333,0,0,-1.3333333,0,666.66667)"
       clip-path="url(#clipPath107)" />
    <path
       id="path108"
       d="m 103.646,227.042 h -2.5 v 2.916 h 2.5 z"
       style="fill:#3664ad;fill-opacity:1;fill-rule:nonzero;stroke:none"
       transform="matrix(1.3333333,0,0,-1.3333333,0,666.66667)"
       clip-path="url(#clipPath109)" />
    <path
       id="path110"
       d="m 124.271,227.042 h -2.5 v 2.916 h 2.5 z"
       style="fill:#3664ad;fill-opacity:1;fill-rule:nonzero;stroke:none"
       transform="matrix(1.3333333,0,0,-1.3333333,0,666.66667)"
       clip-path="url(#clipPath111)" />
    <path
       id="path112"
       d="m 87.458,228.625 h -2.5 v 1.333 h 2.5 z"
       style="fill:#164181;fill-opacity:1;fill-rule:nonzero;stroke:none"
       transform="matrix(1.3333333,0,0,-1.3333333,0,666.66667)"
       clip-path="url(#clipPath113)" />
    <path
       id="path114"
       d="m 103.646,228.625 h -2.5 v 1.333 h 2.5 z"
       style="fill:#164181;fill-opacity:1;fill-rule:nonzero;stroke:none"
       transform="matrix(1.3333333,0,0,-1.3333333,0,666.66667)"
       clip-path="url(#clipPath115)" />
    <path
       id="path116"
       d="m 124.271,228.625 h -2.5 v 1.333 h 2.5 z"
       style="fill:#164181;fill-opacity:1;fill-rule:nonzero;stroke:none"
       transform="matrix(1.3333333,0,0,-1.3333333,0,666.66667)"
       clip-path="url(#clipPath117)" />
    <path
       id="path118"
       d="M 125.515,229.524 H 84.459 v 8.326 h 41.056 z"
       style="fill:#3664ad;fill-opacity:1;fill-rule:nonzero;stroke:none"
       transform="matrix(1.3333333,0,0,-1.3333333,0,666.66667)"
       clip-path="url(#clipPath119)" />
    <path
       id="path120"
       d="M 125.958,229.524 H 99.102 v 8.326 h 26.856 z"
       style="fill:#4b75b6;fill-opacity:1;fill-rule:nonzero;stroke:none"
       transform="matrix(1.3333333,0,0,-1.3333333,0,666.66667)"
       clip-path="url(#clipPath121)" />
    <path
       id="path122"
       d="m 123.771,231.312 h -21.925 v 4.875 h 21.925 z"
       style="fill:#0a377a;fill-opacity:1;fill-rule:nonzero;stroke:none"
       transform="matrix(1.3333333,0,0,-1.3333333,0,666.66667)"
       clip-path="url(#clipPath123)" />
    <path
       id="path124"
       d="m 1.8173672,-2.3329844 c 0.1699219,0 0.3164062,0.011719 0.4335937,0.035156 0.1171875,0.017578 0.2138672,0.046875 0.2929688,0.09375 0.076172,0.041016 0.1347656,0.09375 0.1757812,0.1640625 0.046875,0.064453 0.076172,0.140625 0.09375,0.234375 0.023437,0.087891 0.035156,0.1845703 0.035156,0.2929687 0.00586,0.1113281 0.011719,0.2314453 0.011719,0.3632813 0,0.140625 -0.00586,0.26660154 -0.011719,0.37499997 0,0.11132813 -0.011719,0.2109375 -0.035156,0.3046875 -0.017578,0.0878906 -0.046875,0.1640625 -0.09375,0.234375 -0.041016,0.0644531 -0.099609,0.1171875 -0.1757812,0.1640625 C 2.4648281,-0.03025 2.3681484,-0.00388281 2.2509609,0.01076562 2.1337734,0.03420312 1.9872891,0.04592187 1.8173672,0.04592187 H 1.2431484 c -0.1816406,0 -0.32812496,-0.01171875 -0.44531246,-0.03515625 C 0.68064844,-0.00388281 0.58103906,-0.03025 0.50486719,-0.07126563 c -0.0791016,-0.046875 -0.140625,-0.09960937 -0.1875,-0.1640625 -0.0410156,-0.0703125 -0.0703125,-0.14648437 -0.09375,-0.234375 -0.0175781,-0.09375 -0.0292969,-0.19335937 -0.0351563,-0.3046875 0,-0.10839843 0,-0.23437497 0,-0.37499997 0,-0.131836 0,-0.2519532 0,-0.3632813 0.005859,-0.1083984 0.0175781,-0.2050781 0.0351563,-0.2929687 0.0234375,-0.09375 0.0527344,-0.1699219 0.09375,-0.234375 0.046875,-0.070312 0.10839843,-0.1230469 0.1875,-0.1640625 0.0761719,-0.046875 0.17578125,-0.076172 0.29296875,-0.09375 0.1171875,-0.023437 0.26367186,-0.035156 0.44531246,-0.035156 z m 0,2.14453127 c 0.1230469,0 0.2285156,-0.00293 0.3164062,-0.0117188 0.084961,-0.005859 0.1552735,-0.0234375 0.2109375,-0.046875 0.052734,-0.0234375 0.09668,-0.0527344 0.1289063,-0.09375 0.029297,-0.046875 0.052734,-0.10546875 0.070312,-0.17578125 0.014648,-0.0703125 0.023437,-0.15527343 0.023437,-0.2578125 0,-0.0996094 0,-0.22558593 0,-0.37500002 0,-0.140625 0,-0.2607421 0,-0.3632813 0,-0.099609 -0.00879,-0.1875 -0.023437,-0.2578125 -0.017578,-0.070312 -0.041016,-0.1230469 -0.070312,-0.1640625 -0.032227,-0.046875 -0.076172,-0.082031 -0.1289063,-0.1054687 -0.055664,-0.023437 -0.1259765,-0.038086 -0.2109375,-0.046875 -0.087891,-0.00586 -0.1933593,-0.011719 -0.3164062,-0.011719 H 1.2431484 c -0.1347656,0 -0.24316403,0.00586 -0.32812496,0.011719 -0.0878906,0.00879 -0.15820313,0.023437 -0.2109375,0.046875 -0.0556641,0.023437 -0.0996094,0.058594 -0.12890625,0.1054688 -0.0322266,0.041016 -0.0556641,0.09375 -0.0703125,0.1640625 -0.0175781,0.070312 -0.0234375,0.1582031 -0.0234375,0.2578125 0,0.1025391 0,0.2226563 0,0.3632813 0,0.14941399 0,0.27539055 0,0.37499992 0,0.10253907 0.005859,0.1875 0.0234375,0.2578125 0.0146484,0.0703125 0.0380859,0.12890625 0.0703125,0.17578125 0.0292969,0.0410156 0.0732422,0.0703125 0.12890625,0.09375 0.0527344,0.0234375 0.12304687,0.0410156 0.2109375,0.046875 0.0849609,0.008789 0.19335936,0.0117188 0.32812496,0.0117188 z m 4.03125,-1.10156247 c 0.046875,0 0.084961,-0.00293 0.1171875,-0.011719 0.038086,-0.00586 0.070312,-0.023437 0.09375,-0.046875 0.023437,-0.023437 0.038086,-0.052734 0.046875,-0.09375 0.014648,-0.046875 0.023437,-0.1054687 0.023437,-0.1757812 0,-0.076172 -0.00879,-0.1435547 -0.023437,-0.1992188 -0.00879,-0.052734 -0.029297,-0.09668 -0.058594,-0.1289062 -0.023437,-0.038086 -0.058594,-0.064453 -0.1054687,-0.082031 -0.046875,-0.023437 -0.1054688,-0.038086 -0.1757813,-0.046875 -0.070312,-0.00586 -0.1582031,-0.011719 -0.2578125,-0.011719 -0.09375,-0.00586 -0.2050781,-0.011719 -0.328125,-0.011719 -0.1728515,0 -0.3222656,0.00586 -0.4453125,0.011719 -0.1171875,0 -0.2167968,0.00879 -0.2929687,0.023437 -0.079102,0.017578 -0.140625,0.035156 -0.1875,0.058594 -0.041016,0.017578 -0.067383,0.043945 -0.082031,0.082031 -0.017578,0.032226 -0.029297,0.076172 -0.035156,0.1289062 0,0.046875 0,0.1054688 0,0.1757813 H 3.8447109 c 0,-0.1171875 0.011719,-0.2167969 0.035156,-0.3046875 0.029297,-0.084961 0.070312,-0.1523438 0.1171875,-0.1992188 0.052734,-0.052734 0.1171875,-0.09375 0.1875,-0.1171875 0.076172,-0.029297 0.1669922,-0.052734 0.2695312,-0.070312 0.099609,-0.014648 0.2109375,-0.023437 0.328125,-0.023437 0.1230469,0 0.2578125,0 0.3984375,0 0.140625,0 0.2695313,0.00586 0.3867188,0.011719 0.1171875,0 0.2226562,0.00879 0.3164062,0.023437 0.09375,0.017578 0.1699219,0.041016 0.234375,0.070312 0.070312,0.032226 0.1230469,0.076172 0.1640625,0.1289062 0.046875,0.055664 0.082031,0.1230469 0.1054688,0.1992188 0.023437,0.079101 0.035156,0.1728515 0.035156,0.28125 0,0.070312 -0.00879,0.1347656 -0.023437,0.1875 -0.00879,0.046875 -0.023437,0.087891 -0.046875,0.1171875 -0.017578,0.032226 -0.041016,0.058594 -0.070312,0.082031 -0.023437,0.023437 -0.058594,0.043945 -0.1054687,0.058594 0.046875,0.023437 0.082031,0.052734 0.1054687,0.082031 0.029297,0.023437 0.052734,0.055664 0.070312,0.09375 0.023437,0.0410156 0.038086,0.0878906 0.046875,0.140625 0.014648,0.0556641 0.023437,0.1171875 0.023437,0.1875 0,0.11132813 -0.011719,0.20507813 -0.035156,0.28125 -0.023437,0.0791016 -0.058594,0.14648438 -0.1054688,0.19921875 -0.041016,0.0556641 -0.09375,0.09960938 -0.1640625,0.12890625 -0.064453,0.03222657 -0.140625,0.05566407 -0.234375,0.0703125 -0.09375,0.01464844 -0.1992187,0.0234375 -0.3164062,0.0234375 -0.1171875,0.0058594 -0.2460938,0.01171875 -0.3867188,0.01171875 -0.140625,0 -0.2753906,0 -0.3984375,0 -0.1171875,0 -0.2285156,-0.0087891 -0.328125,-0.0234375 -0.102539,-0.01757812 -0.1933593,-0.03808593 -0.2695312,-0.0703125 -0.070312,-0.02929687 -0.1347656,-0.07324218 -0.1875,-0.12890625 -0.046875,-0.0527344 -0.087891,-0.12304687 -0.1171875,-0.2109375 -0.023437,-0.09375 -0.035156,-0.20214843 -0.035156,-0.328125 h 0.2929688 c 0,0.0791016 0,0.14648438 0,0.19921875 0.00586,0.0556641 0.017578,0.10253907 0.035156,0.140625 0.014648,0.0410156 0.041016,0.0703125 0.082031,0.09375 0.046875,0.0234375 0.1083984,0.0439453 0.1875,0.0585938 0.076172,0.008789 0.1757812,0.0175781 0.2929687,0.0234375 0.1230469,0.008789 0.272461,0.0117188 0.4453125,0.0117188 0.1230469,0 0.234375,0 0.328125,0 0.099609,-0.005859 0.1875,-0.0146484 0.2578125,-0.0234375 0.070312,-0.005859 0.1289063,-0.0175781 0.1757813,-0.0351563 0.046875,-0.0234375 0.082031,-0.0498047 0.1054687,-0.0820313 0.029297,-0.0380859 0.049805,-0.0849609 0.058594,-0.140625 0.014648,-0.0527344 0.023437,-0.12011718 0.023437,-0.19921875 0,-0.0849609 -0.00879,-0.15234375 -0.023437,-0.19921875 -0.00879,-0.046875 -0.023437,-0.0820313 -0.046875,-0.10546875 -0.023437,-0.0292969 -0.055664,-0.0498047 -0.09375,-0.0585937 -0.032227,-0.00586 -0.070312,-0.011719 -0.1171875,-0.011719 H 4.8056484 v -0.2460937 z m 2.4580078,0.140625 H 8.0136562 v -0.28125 H 8.306625 Z m 0,0.86718747 H 8.0136562 V -0.57517188 H 8.306625 Z m 3.316406,-1.28906247 c 0.123047,0 0.228516,0.00879 0.316406,0.023437 0.09375,0.00879 0.169922,0.029297 0.234375,0.058594 0.06152,0.032227 0.111329,0.070312 0.152344,0.1171875 0.03809,0.041016 0.07031,0.09082 0.09375,0.1523438 0.02344,0.055664 0.03809,0.1230468 0.04687,0.1992187 0.0059,0.0791016 0.01172,0.16406252 0.01172,0.25781252 0,0.12597657 -0.01172,0.234375 -0.03516,0.328125 -0.02344,0.0878906 -0.05859,0.16113282 -0.105469,0.22265625 -0.04102,0.0556641 -0.09375,0.10253907 -0.164063,0.140625 -0.06445,0.03222657 -0.140625,0.05566407 -0.234375,0.070312505 -0.09375,0.023437495 -0.199218,0.035156245 -0.316406,0.035156245 -0.117187,0.0058594 -0.246094,0.01171875 -0.386719,0.01171875 -0.140625,0 -0.27539,0 -0.398437,0 -0.117188,0 -0.228516,-0.0087891 -0.328125,-0.0234375 -0.102539,-0.01757812 -0.193359,-0.03808593 -0.269531,-0.0703125 -0.07031,-0.02929687 -0.134766,-0.07324218 -0.1875,-0.12890625 -0.04687,-0.0527344 -0.087891,-0.12304687 -0.1171878,-0.2109375 -0.023437,-0.09375 -0.035156,-0.20214843 -0.035156,-0.328125 h 0.2929688 c 0,0.0791016 0,0.14648438 0,0.19921875 0.0059,0.0556641 0.01758,0.10253907 0.03516,0.140625 0.01465,0.0410156 0.04102,0.0703125 0.08203,0.09375 0.04687,0.0234375 0.108399,0.0439453 0.1875,0.0585938 0.07617,0.008789 0.175781,0.0175781 0.292969,0.0234375 0.123047,0.008789 0.272461,0.0117188 0.445312,0.0117188 0.123047,0 0.234375,0 0.328125,0 0.09961,-0.005859 0.1875,-0.0146484 0.257813,-0.0234375 0.07031,-0.0146484 0.128906,-0.0351563 0.175781,-0.0585938 0.04687,-0.0234375 0.08203,-0.0527344 0.105469,-0.09375 0.0293,-0.0380859 0.0498,-0.0878906 0.05859,-0.15234375 0.01465,-0.0703125 0.02344,-0.15234375 0.02344,-0.24609375 0,-0.12304687 -0.0088,-0.22558593 -0.02344,-0.30468747 -0.01758,-0.076172 -0.04395,-0.1347656 -0.08203,-0.1757812 -0.04101,-0.038086 -0.09961,-0.061524 -0.175781,-0.070312 -0.07031,-0.014649 -0.164062,-0.023437 -0.28125,-0.023437 h -0.761719 c -0.134765,0 -0.243164,0.00879 -0.328125,0.023437 -0.0791,0.00879 -0.140625,0.023437 -0.1875,0.046875 -0.04687,0.023437 -0.08203,0.052734 -0.105468,0.082031 -0.02344,0.023437 -0.04102,0.055664 -0.04687,0.09375 H 9.900375 v -1.1953126 h 2.484375 v 0.234375 h -2.191406 v 0.7148439 c 0,0 0.0029,-0.00293 0.01172,-0.011719 0.0059,-0.014648 0.01758,-0.029297 0.03516,-0.046875 0.01465,-0.023437 0.03809,-0.041016 0.07031,-0.058594 0.0293,-0.023437 0.07031,-0.041016 0.117188,-0.058594 0.05273,-0.014648 0.117187,-0.026367 0.1875,-0.035156 0.07031,-0.014649 0.152343,-0.023437 0.246093,-0.023437 z m 3.46875,-0.7617188 c 0.169922,0 0.316407,0.011719 0.433594,0.035156 0.117188,0.017578 0.213867,0.046875 0.292969,0.09375 0.07617,0.041016 0.134765,0.09375 0.175781,0.1640625 0.04687,0.064453 0.07617,0.140625 0.09375,0.234375 0.02344,0.087891 0.03516,0.1845703 0.03516,0.2929687 0.0059,0.1113281 0.01172,0.2314453 0.01172,0.3632813 0,0.140625 -0.0059,0.26660154 -0.01172,0.37499997 0,0.11132813 -0.01172,0.2109375 -0.03516,0.3046875 -0.01758,0.0878906 -0.04687,0.1640625 -0.09375,0.234375 -0.04102,0.0644531 -0.09961,0.1171875 -0.175781,0.1640625 -0.0791,0.04101563 -0.175781,0.06738282 -0.292969,0.08203125 -0.117187,0.0234375 -0.263672,0.03515625 -0.433594,0.03515625 h -0.574219 c -0.18164,0 -0.328125,-0.01171875 -0.445312,-0.03515625 -0.117188,-0.01464843 -0.216797,-0.04101562 -0.292969,-0.08203125 -0.0791,-0.046875 -0.140625,-0.09960937 -0.1875,-0.1640625 -0.04101,-0.0703125 -0.07031,-0.14648437 -0.09375,-0.234375 -0.01758,-0.09375 -0.0293,-0.19335937 -0.03516,-0.3046875 0,-0.10839843 0,-0.23437497 0,-0.37499997 0,-0.131836 0,-0.2519532 0,-0.3632813 0.0059,-0.1083984 0.01758,-0.2050781 0.03516,-0.2929687 0.02344,-0.09375 0.05274,-0.1699219 0.09375,-0.234375 0.04687,-0.070312 0.108399,-0.1230469 0.1875,-0.1640625 0.07617,-0.046875 0.175781,-0.076172 0.292969,-0.09375 0.117187,-0.023437 0.263672,-0.035156 0.445312,-0.035156 z m 0,2.14453127 c 0.123047,0 0.228516,-0.00293 0.316407,-0.0117188 0.08496,-0.005859 0.155273,-0.0234375 0.210937,-0.046875 0.05273,-0.0234375 0.09668,-0.0527344 0.128906,-0.09375 0.0293,-0.046875 0.05274,-0.10546875 0.07031,-0.17578125 0.01465,-0.0703125 0.02344,-0.15527343 0.02344,-0.2578125 0,-0.0996094 0,-0.22558593 0,-0.37500002 0,-0.140625 0,-0.2607421 0,-0.3632813 0,-0.099609 -0.0088,-0.1875 -0.02344,-0.2578125 -0.01758,-0.070312 -0.04102,-0.1230469 -0.07031,-0.1640625 -0.03223,-0.046875 -0.07617,-0.082031 -0.128906,-0.1054687 -0.05566,-0.023437 -0.125977,-0.038086 -0.210937,-0.046875 -0.08789,-0.00586 -0.19336,-0.011719 -0.316407,-0.011719 h -0.574219 c -0.134765,0 -0.243164,0.00586 -0.328125,0.011719 -0.08789,0.00879 -0.158203,0.023437 -0.210937,0.046875 -0.05566,0.023437 -0.09961,0.058594 -0.128906,0.1054688 -0.03223,0.041016 -0.05566,0.09375 -0.07031,0.1640625 -0.01758,0.070312 -0.02344,0.1582031 -0.02344,0.2578125 0,0.1025391 0,0.2226563 0,0.3632813 0,0.14941399 0,0.27539055 0,0.37499992 0,0.10253907 0.0059,0.1875 0.02344,0.2578125 0.01465,0.0703125 0.03809,0.12890625 0.07031,0.17578125 0.0293,0.0410156 0.07324,0.0703125 0.128906,0.09375 0.05273,0.0234375 0.123047,0.0410156 0.210937,0.046875 0.08496,0.008789 0.19336,0.0117188 0.328125,0.0117188 z m 0,0"
       style="fill:#6dec8f;fill-opacity:1;fill-rule:nonzero;stroke:none"
       aria-label="03:50"
       transform="matrix(1.3333333,0,0,1.3333333,139.612,356.66533)" />
    <path
       id="path125"
       d="M 48.841,125.333 H 37 V 222 h 11.841 z"
       style="fill:#224b87;fill-opacity:1;fill-rule:nonzero;stroke:none"
       transform="matrix(1.3333333,0,0,-1.3333333,0,666.66667)"
       clip-path="url(#clipPath126)" />
    <path
       id="path127"
       d="m 48.841,125.333 h -5.92 V 222 h 5.92 z"
       style="fill:#2b5ca9;fill-opacity:1;fill-rule:nonzero;stroke:none"
       transform="matrix(1.3333333,0,0,-1.3333333,0,666.66667)"
       clip-path="url(#clipPath128)" />
    <path
       id="path129"
       d="M 91.083,125.333 H 79.242 V 222 h 11.841 z"
       style="fill:#224b87;fill-opacity:1;fill-rule:nonzero;stroke:none"
       transform="matrix(1.3333333,0,0,-1.3333333,0,666.66667)"
       clip-path="url(#clipPath130)" />
    <path
       id="path131"
       d="m 91.083,125.333 h -5.92 V 222 h 5.92 z"
       style="fill:#2b5ca9;fill-opacity:1;fill-rule:nonzero;stroke:none"
       transform="matrix(1.3333333,0,0,-1.3333333,0,666.66667)"
       clip-path="url(#clipPath132)" />
    <path
       id="path133"
       d="M 131.083,125.333 H 119.242 V 222 h 11.841 z"
       style="fill:#224b87;fill-opacity:1;fill-rule:nonzero;stroke:none"
       transform="matrix(1.3333333,0,0,-1.3333333,0,666.66667)"
       clip-path="url(#clipPath134)" />
    <path
       id="path135"
       d="m 131.083,125.333 h -5.92 V 222 h 5.92 z"
       style="fill:#3664ad;fill-opacity:1;fill-rule:nonzero;stroke:none"
       transform="matrix(1.3333333,0,0,-1.3333333,0,666.66667)"
       clip-path="url(#clipPath136)" />
    <path
       id="path137"
       d="M 86.167,183.167 H 45 V 222 h 41.167 z"
       style="fill:#224b87;fill-opacity:1;fill-rule:nonzero;stroke:none"
       transform="matrix(1.3333333,0,0,-1.3333333,0,666.66667)"
       clip-path="url(#clipPath138)" />
    <path
       id="path139"
       d="M 78.833,183.167 H 75.666 V 222 h 3.167 z"
       style="fill:#164181;fill-opacity:1;fill-rule:nonzero;stroke:none"
       transform="matrix(1.3333333,0,0,-1.3333333,0,666.66667)"
       clip-path="url(#clipPath140)" />
    <path
       id="path141"
       d="m 123.5,183.167 h -40 V 222 h 40 z"
       style="fill:#2b5ca9;fill-opacity:1;fill-rule:nonzero;stroke:none"
       transform="matrix(1.3333333,0,0,-1.3333333,0,666.66667)"
       clip-path="url(#clipPath142)" />
    <path
       id="path143"
       d="M 88.841,125.333 H 77 V 222 h 11.841 z"
       style="fill:#224b87;fill-opacity:1;fill-rule:nonzero;stroke:none"
       transform="matrix(1.3333333,0,0,-1.3333333,0,666.66667)"
       clip-path="url(#clipPath144)" />
    <path
       id="path145"
       d="m 88.841,125.333 h -5.92 V 222 h 5.92 z"
       style="fill:#3664ad;fill-opacity:1;fill-rule:nonzero;stroke:none"
       transform="matrix(1.3333333,0,0,-1.3333333,0,666.66667)"
       clip-path="url(#clipPath146)" />
    <path
       id="path147"
       d="M 131.074,218.833 H 37 V 222 h 94.074 z"
       style="fill:#164181;fill-opacity:1;fill-rule:nonzero;stroke:none"
       transform="matrix(1.3333333,0,0,-1.3333333,0,666.66667)"
       clip-path="url(#clipPath148)" />
    <path
       id="path149"
       d="m 134.583,221 h -101.5 v 6.5 h 101.5 z"
       style="fill:#224b87;fill-opacity:1;fill-rule:nonzero;stroke:none"
       transform="matrix(1.3333333,0,0,-1.3333333,0,666.66667)"
       clip-path="url(#clipPath150)" />
    <path
       id="path151"
       d="m 135.583,221 h -60.5 v 6.5 h 60.5 z"
       style="fill:#3664ad;fill-opacity:1;fill-rule:nonzero;stroke:none"
       transform="matrix(1.3333333,0,0,-1.3333333,0,666.66667)"
       clip-path="url(#clipPath152)" />
    <path
       id="path153"
       d="m 0,0 h -7.917 c -1.473,0 -2.666,1.194 -2.666,2.667 0,1.473 1.193,2.666 2.666,2.666 H 0 C 1.473,5.333 2.667,4.14 2.667,2.667 2.667,1.194 1.473,0 0,0"
       style="fill:#164181;fill-opacity:1;fill-rule:nonzero;stroke:none"
       transform="matrix(1.3333333,0,0,-1.3333333,148,399.33333)"
       clip-path="url(#clipPath154)" />
    <path
       id="path155"
       d="m 0,0 h -7.917 c -1.472,0 -2.666,1.193 -2.666,2.666 0,1.473 1.194,2.667 2.666,2.667 H 0 C 1.473,5.333 2.667,4.139 2.667,2.666 2.667,1.193 1.473,0 0,0"
       style="fill:#3664ad;fill-opacity:1;fill-rule:nonzero;stroke:none"
       transform="matrix(1.3333333,0,0,-1.3333333,149.222,397.77733)"
       clip-path="url(#clipPath156)" />
  </g>
</svg>
